HIERARCHY
ROOT Hips
{
  OFFSET -305.516 93.251 603.965
  CHANNELS 6 Xposition Yposition Zposition Zrotation Xrotation Yrotation
  JOINT Spine
  {
    OFFSET 0 8 1.46513e-05
    CHANNELS 6 Xposition Yposition Zposition Zrotation Xrotation Yrotation
    JOINT Spine1
    {
      OFFSET -1.61071e-05 8 -2.31587e-05
      CHANNELS 6 Xposition Yposition Zposition Zrotation Xrotation Yrotation
      JOINT Spine2
      {
        OFFSET 0 8 0
        CHANNELS 6 Xposition Yposition Zposition Zrotation Xrotation Yrotation
        JOINT Spine3
        {
          OFFSET 0 8 0
          CHANNELS 6 Xposition Yposition Zposition Zrotation Xrotation Yrotation
          JOINT Neck
          {
            OFFSET 0 17 -0.000275479
            CHANNELS 6 Xposition Yposition Zposition Zrotation Xrotation Yrotation
            JOINT Head
            {
              OFFSET 0 10.8 0
              CHANNELS 6 Xposition Yposition Zposition Zrotation Xrotation Yrotation
              End Site
              {
                OFFSET 0 20.25 0
              }
            }
          }
          JOINT LeftShoulder
          {
            OFFSET 4.99998 17 -0.000320569
            CHANNELS 6 Xposition Yposition Zposition Zrotation Xrotation Yrotation
            JOINT LeftShoulder2
            {
              OFFSET 6.45 0 0
              CHANNELS 6 Xposition Yposition Zposition Zrotation Xrotation Yrotation
              JOINT LeftArm
              {
                OFFSET 6.44999 0.000134698 -0.000383032
                CHANNELS 6 Xposition Yposition Zposition Zrotation Xrotation Yrotation
                JOINT LeftForeArm
                {
                  OFFSET -1.07667e-05 -32.4 -2.00004
                  CHANNELS 6 Xposition Yposition Zposition Zrotation Xrotation Yrotation
                  JOINT LeftHand
                  {
                    OFFSET 3.80708e-05 -25.65 1.99997
                    CHANNELS 6 Xposition Yposition Zposition Zrotation Xrotation Yrotation
                    JOINT LeftHandThumb1
                    {
                      OFFSET -0.500009 -1.49998 2.65004
                      CHANNELS 6 Xposition Yposition Zposition Zrotation Xrotation Yrotation
                      JOINT LeftHandThumb2
                      {
                        OFFSET -1.92473e-05 -3.8 3.69997
                        CHANNELS 6 Xposition Yposition Zposition Zrotation Xrotation Yrotation
                        JOINT LeftHandThumb3
                        {
                          OFFSET 2.00784e-05 -3 2.7
                          CHANNELS 6 Xposition Yposition Zposition Zrotation Xrotation Yrotation
                          End Site
                          {
                            OFFSET -1.11338e-05 -2.29998 1.80002
                          }
                        }
                      }
                    }
                    JOINT LeftHandIndex
                    {
                      OFFSET 0 -1.89998 1.60004
                      CHANNELS 6 Xposition Yposition Zposition Zrotation Xrotation Yrotation
                      JOINT LeftHandIndex1
                      {
                        OFFSET -1.05977e-05 -8.3 1.89998
                        CHANNELS 6 Xposition Yposition Zposition Zrotation Xrotation Yrotation
                        JOINT LeftHandIndex2
                        {
                          OFFSET 3.47462e-05 -4.49999 2.17521e-05
                          CHANNELS 6 Xposition Yposition Zposition Zrotation Xrotation Yrotation
                          JOINT LeftHandIndex3
                          {
                            OFFSET 1.77078e-05 -3.40002 -1.80884e-05
                            CHANNELS 6 Xposition Yposition Zposition Zrotation Xrotation Yrotation
                            End Site
                            {
                              OFFSET -1.36031e-05 -2.59999 0
                            }
                          }
                        }
                      }
                    }
                    JOINT LeftHandMiddle
                    {
                      OFFSET -0.250011 -2.19998 0.400022
                      CHANNELS 6 Xposition Yposition Zposition Zrotation Xrotation Yrotation
                      JOINT LeftHandMiddle1
                      {
                        OFFSET 1.06397e-05 -8.30002 0.99998
                        CHANNELS 6 Xposition Yposition Zposition Zrotation Xrotation Yrotation
                        JOINT LeftHandMiddle2
                        {
                          OFFSET 0 -4.65 1.53436e-05
                          CHANNELS 6 Xposition Yposition Zposition Zrotation Xrotation Yrotation
                          JOINT LeftHandMiddle3
                          {
                            OFFSET -1.17926e-05 -3.29999 0
                            CHANNELS 6 Xposition Yposition Zposition Zrotation Xrotation Yrotation
                            End Site
                            {
                              OFFSET -5.0135e-05 -2.7 0
                            }
                          }
                        }
                      }
                    }
                    JOINT LeftHandRing
                    {
                      OFFSET -0.499993 -2.15 -0.799996
                      CHANNELS 6 Xposition Yposition Zposition Zrotation Xrotation Yrotation
                      JOINT LeftHandRing1
                      {
                        OFFSET -2.65073e-05 -7.74998 -0.199963
                        CHANNELS 6 Xposition Yposition Zposition Zrotation Xrotation Yrotation
                        JOINT LeftHandRing2
                        {
                          OFFSET 1.55709e-05 -3.80003 -4.41857e-05
                          CHANNELS 6 Xposition Yposition Zposition Zrotation Xrotation Yrotation
                          JOINT LeftHandRing3
                          {
                            OFFSET -1.04809e-05 -3.39998 3.33721e-05
                            CHANNELS 6 Xposition Yposition Zposition Zrotation Xrotation Yrotation
                            End Site
                            {
                              OFFSET 3.73501e-05 -2.60002 0
                            }
                          }
                        }
                      }
                    }
                    JOINT LeftHandPinky
                    {
                      OFFSET -0.750001 -1.74999 -1.84999
                      CHANNELS 6 Xposition Yposition Zposition Zrotation Xrotation Yrotation
                      JOINT LeftHandPinky1
                      {
                        OFFSET 0 -7.15001 -1.00001
                        CHANNELS 6 Xposition Yposition Zposition Zrotation Xrotation Yrotation
                        JOINT LeftHandPinky2
                        {
                          OFFSET 0 -2.99999 1.12511e-05
                          CHANNELS 6 Xposition Yposition Zposition Zrotation Xrotation Yrotation
                          JOINT LeftHandPinky3
                          {
                            OFFSET 2.98372e-05 -2.35 0
                            CHANNELS 6 Xposition Yposition Zposition Zrotation Xrotation Yrotation
                            End Site
                            {
                              OFFSET 0 -2.1 -1.21655e-05
                            }
                          }
                        }
                      }
                    }
                  }
                }
              }
            }
          }
          JOINT RightShoulder
          {
            OFFSET -5.00002 17 -0.000180615
            CHANNELS 6 Xposition Yposition Zposition Zrotation Xrotation Yrotation
            JOINT RightShoulder2
            {
              OFFSET -6.45 0 0
              CHANNELS 6 Xposition Yposition Zposition Zrotation Xrotation Yrotation
              JOINT RightArm
              {
                OFFSET -6.44997 -0.00043509 0.00111637
                CHANNELS 6 Xposition Yposition Zposition Zrotation Xrotation Yrotation
                JOINT RightForeArm
                {
                  OFFSET 0 -32.4 -2.00005
                  CHANNELS 6 Xposition Yposition Zposition Zrotation Xrotation Yrotation
                  JOINT RightHand
                  {
                    OFFSET 0 -25.65 2.00001
                    CHANNELS 6 Xposition Yposition Zposition Zrotation Xrotation Yrotation
                    JOINT RightHandThumb1
                    {
                      OFFSET 0.500018 -1.5 2.64999
                      CHANNELS 6 Xposition Yposition Zposition Zrotation Xrotation Yrotation
                      JOINT RightHandThumb2
                      {
                        OFFSET 2.39438e-05 -3.80002 3.70002
                        CHANNELS 6 Xposition Yposition Zposition Zrotation Xrotation Yrotation
                        JOINT RightHandThumb3
                        {
                          OFFSET -2.14568e-05 -2.99999 2.69999
                          CHANNELS 6 Xposition Yposition Zposition Zrotation Xrotation Yrotation
                          End Site
                          {
                            OFFSET -2.73748e-05 -2.3 1.79998
                          }
                        }
                      }
                    }
                    JOINT RightHandIndex
                    {
                      OFFSET 1.64587e-05 -1.90001 1.60001
                      CHANNELS 6 Xposition Yposition Zposition Zrotation Xrotation Yrotation
                      JOINT RightHandIndex1
                      {
                        OFFSET 0 -8.3 1.89993
                        CHANNELS 6 Xposition Yposition Zposition Zrotation Xrotation Yrotation
                        JOINT RightHandIndex2
                        {
                          OFFSET 0 -4.50001 -1.29973e-05
                          CHANNELS 6 Xposition Yposition Zposition Zrotation Xrotation Yrotation
                          JOINT RightHandIndex3
                          {
                            OFFSET 6.01008e-05 -3.4 0
                            CHANNELS 6 Xposition Yposition Zposition Zrotation Xrotation Yrotation
                            End Site
                            {
                              OFFSET -1.03257e-05 -2.6 3.22497e-05
                            }
                          }
                        }
                      }
                    }
                    JOINT RightHandMiddle
                    {
                      OFFSET 0.250048 -2.20001 0.399996
                      CHANNELS 6 Xposition Yposition Zposition Zrotation Xrotation Yrotation
                      JOINT RightHandMiddle1
                      {
                        OFFSET -2.52443e-05 -8.30001 1.00002
                        CHANNELS 6 Xposition Yposition Zposition Zrotation Xrotation Yrotation
                        JOINT RightHandMiddle2
                        {
                          OFFSET -5.92227e-05 -4.64999 -1.25334e-05
                          CHANNELS 6 Xposition Yposition Zposition Zrotation Xrotation Yrotation
                          JOINT RightHandMiddle3
                          {
                            OFFSET 2.86433e-05 -3.29999 -2.69847e-05
                            CHANNELS 6 Xposition Yposition Zposition Zrotation Xrotation Yrotation
                            End Site
                            {
                              OFFSET 0 -2.7 0
                            }
                          }
                        }
                      }
                    }
                    JOINT RightHandRing
                    {
                      OFFSET 0.500038 -2.15001 -0.800008
                      CHANNELS 6 Xposition Yposition Zposition Zrotation Xrotation Yrotation
                      JOINT RightHandRing1
                      {
                        OFFSET 1.4153e-05 -7.75001 -0.199988
                        CHANNELS 6 Xposition Yposition Zposition Zrotation Xrotation Yrotation
                        JOINT RightHandRing2
                        {
                          OFFSET 0 -3.79998 -1.82841e-05
                          CHANNELS 6 Xposition Yposition Zposition Zrotation Xrotation Yrotation
                          JOINT RightHandRing3
                          {
                            OFFSET 0 -3.39999 0
                            CHANNELS 6 Xposition Yposition Zposition Zrotation Xrotation Yrotation
                            End Site
                            {
                              OFFSET 0 -2.59999 0
                            }
                          }
                        }
                      }
                    }
                    JOINT RightHandPinky
                    {
                      OFFSET 0.750019 -1.75002 -1.84999
                      CHANNELS 6 Xposition Yposition Zposition Zrotation Xrotation Yrotation
                      JOINT RightHandPinky1
                      {
                        OFFSET 0 -7.14999 -1.00002
                        CHANNELS 6 Xposition Yposition Zposition Zrotation Xrotation Yrotation
                        JOINT RightHandPinky2
                        {
                          OFFSET 0 -3.00004 2.62755e-05
                          CHANNELS 6 Xposition Yposition Zposition Zrotation Xrotation Yrotation
                          JOINT RightHandPinky3
                          {
                            OFFSET 0 -2.34998 -2.41617e-05
                            CHANNELS 6 Xposition Yposition Zposition Zrotation Xrotation Yrotation
                            End Site
                            {
                              OFFSET 0 -2.09999 -2.32512e-05
                            }
                          }
                        }
                      }
                    }
                  }
                }
              }
            }
          }
        }
      }
    }
  }
  JOINT LeftUpLeg
  {
    OFFSET 8 0 0
    CHANNELS 6 Xposition Yposition Zposition Zrotation Xrotation Yrotation
    JOINT LeftLeg
    {
      OFFSET 0 -45 -1.00003
      CHANNELS 6 Xposition Yposition Zposition Zrotation Xrotation Yrotation
      JOINT LeftFoot
      {
        OFFSET 0 -41.0001 -1.99998
        CHANNELS 6 Xposition Yposition Zposition Zrotation Xrotation Yrotation
        JOINT LeftToeBase
        {
          OFFSET -5.39085e-05 -7.5 12.5
          CHANNELS 6 Xposition Yposition Zposition Zrotation Xrotation Yrotation
          JOINT LeftFootToe
          {
            OFFSET 0 0 4
            CHANNELS 6 Xposition Yposition Zposition Zrotation Xrotation Yrotation
            End Site
            {
              OFFSET 0 0 0
            }
          }
        }
      }
    }
  }
  JOINT RightUpLeg
  {
    OFFSET -8 0 0
    CHANNELS 6 Xposition Yposition Zposition Zrotation Xrotation Yrotation
    JOINT RightLeg
    {
      OFFSET -1.90108e-05 -45 -1
      CHANNELS 6 Xposition Yposition Zposition Zrotation Xrotation Yrotation
      JOINT RightFoot
      {
        OFFSET 6.05558e-05 -41.0001 -1.99997
        CHANNELS 6 Xposition Yposition Zposition Zrotation Xrotation Yrotation
        JOINT RightToeBase
        {
          OFFSET 1.66777e-05 -7.5 12.5
          CHANNELS 6 Xposition Yposition Zposition Zrotation Xrotation Yrotation
          JOINT RightFootToe
          {
            OFFSET 0 0 4
            CHANNELS 6 Xposition Yposition Zposition Zrotation Xrotation Yrotation
            End Site
            {
              OFFSET 0 0 0
            }
          }
        }
      }
    }
  }
}
MOTION
Frames:	3
Frame Time:	0.0111111
-251.623 81.6579 649.661 1.5105 0.260869 -173.586 0 8 -1.13687e-13 9.70324 17.2482 -10.9691 0 8 0 0.83905 8.1233 1.60675 0 8 -1.13687e-13 0.447579 4.06409 0.817325 2.84217e-14 8 1.13687e-13 0.446459 4.05333 0.815174 0 17 -1.13687e-13 2.36451 -0.411052 -4.92694 5.68434e-14 10.8 0 5.45468 -1.28213 -11.4826 5 17 0 -0.999559 -5.36156 9.29912 6.45 0 0 -1.93527 -1.82311 -1.22565 6.45 -2.84217e-14 -1.13687e-13 66.9786 -67.2691 30.3945 -5.68434e-14 -32.4 -2 -1.94982 -27.1838 5.28921 5.68434e-14 -25.65 2 5.31781 -4.38675 -30.8668 -0.5 -1.5 2.65 10.9296 -54.9524 17.3417 -2.84217e-14 -3.8 3.7 -0.0924988 16.8345 0.00986792 -2.84217e-14 -3 2.7 -0.0358711 32.6401 0.0291375 2.84217e-14 -1.9 1.6 -3.89406e-06 3.86595e-06 -7.9273e-07 -2.84217e-14 -8.3 1.9 -1.66914 -5.68846 0.0208263 0 -4.5 -5.68434e-14 -0.000304578 -1.33501e-05 -0.000689243 2.84217e-14 -3.4 0 1.52994e-06 -4.1498e-06 -0.000670312 -0.25 -2.2 0.4 -3.89406e-06 3.86595e-06 -7.9273e-07 -5.68434e-14 -8.3 1 -1.87205 -1.56443 0.108809 0 -4.65 0 -0.00147487 0.000468563 1.03349e-05 0 -3.3 5.68434e-14 -3.48939e-06 0.000448665 -7.88002e-07 -0.5 -2.15 -0.8 -3.89406e-06 3.86595e-06 -7.9273e-07 2.84217e-14 -7.75 -0.2 -3.08468 3.74877 0.339951 2.84217e-14 -3.8 0 -0.000252896 -0.0303293 -0.0161758 2.84217e-14 -3.4 0 1.02131e-05 -0.0226483 -0.0160191 -0.75 -1.75 -1.85 -3.89406e-06 3.86595e-06 -7.9273e-07 0 -7.15 -1 -1.84454 11.5152 0.431828 0 -3 0 -0.0297935 0.000819002 -1.37837e-05 -2.84217e-14 -2.35 -5.68434e-14 -8.92549e-06 0.000759849 -5.85136e-06 -5 17 1.13687e-13 7.52025 -8.40593 -5.00255 -6.45 2.84217e-14 0 -2.8502 1.36688 -0.921578 -6.45 -2.84217e-14 -1.13687e-13 -50.5081 -40.7636 6.18494 5.68434e-14 -32.4 -2 -65.4643 -49.6884 -60.2068 -2.84217e-14 -25.65 2 -19.127 -31.3391 -3.75857 0.5 -1.5 2.65 1.22004 -5.15437 0.206803 -2.84217e-14 -3.8 3.7 0.580336 37.1206 -0.229059 -5.68434e-14 -3 2.7 0.127352 67.131 -0.129922 0 -1.9 1.6 9.54166e-15 0 -1.59028e-15 2.84217e-14 -8.3 1.9 0.934329 -8.13784 0.0262439 -5.68434e-14 -4.5 0 79.3572 -0.0432997 0.00468118 0 -3.4 5.68434e-14 61.5846 0.00387524 -0.00753661 0.25 -2.2 0.4 9.54166e-15 0 -1.59028e-15 0 -8.3 1 15.9626 -14.1904 1.15512 0 -4.65 -1.13687e-13 73.9227 0.030493 -0.0233943 5.68434e-14 -3.3 0 55.7268 -0.00219489 -0.0361887 0.5 -2.15 -0.8 9.54166e-15 0 -1.59028e-15 -2.84217e-14 -7.75 -0.2 40.9102 -8.77711 0.769146 -1.42109e-14 -3.8 1.13687e-13 33.5412 0.00255608 -0.0347598 2.84217e-14 -3.4 1.13687e-13 24.2004 0.0138867 -0.0119712 0.75 -1.75 -1.85 9.54166e-15 0 -1.59028e-15 0 -7.15 -1 75.5774 -11.2978 -0.497877 0 -3 5.68434e-14 74.23 -0.0357808 -0.0101808 -1.13687e-13 -2.35 0 57.131 -0.0315477 -0.00334051 8 -1.42109e-14 0 15.0691 -55.7223 19.1427 0 -45 -1 2.11981 55.5936 -16.772 -5.68434e-14 -41 -2 -3.41685 -5.48682 -2.40653 0 -7.5 12.5 -1.14825e-08 3.58174e-06 1.3151e-08 5.68434e-14 0 4 6.97739 1.72373 37.2679 -8 0 0 8.69905 -43.9178 10.0518 0 -45 -1 -3.04133 66.3899 4.93958 -5.68434e-14 -41 -2 -2.62756 0.844032 6.71442 0 -7.5 12.5 7.18192e-07 -22.9816 9.47049e-08 0 6.93889e-18 4 9.01882 23.838 21.6274 
-251.887 82.0123 649.375 1.67893 0.257916 -173.723 0 8 0 9.8475 17.4462 -10.8583 0 8 0 0.80177 8.08547 1.65594 2.84217e-14 8 0 0.429708 4.04516 0.841178 0 8 1.13687e-13 0.429683 4.03489 0.836563 2.84217e-14 17 0 2.38169 -0.430979 -4.978 -2.84217e-14 10.8 -1.13687e-13 5.49157 -1.33378 -11.6008 5 17 0 -0.923233 -5.33736 9.21072 6.45 0 0 -1.93488 -1.82345 -1.2235 6.45 0 0 66.4797 -67.0849 29.8714 0 -32.4 -2 -1.85917 -27.4628 5.77047 5.68434e-14 -25.65 2 6.32585 -6.67209 -30.2352 -0.5 -1.5 2.65 8.911 -55.0556 16.5289 -2.84217e-14 -3.8 3.7 -0.095405 16.6746 0.0029198 2.84217e-14 -3 2.7 -0.042186 33.7319 0.046505 2.84217e-14 -1.9 1.6 -3.89406e-06 3.86595e-06 -7.9273e-07 -2.84217e-14 -8.3 1.9 -1.57642 -4.65167 0.0985847 5.68434e-14 -4.5 0 -0.000304578 -1.33501e-05 -0.000689243 0 -3.4 0 1.52994e-06 -4.1498e-06 -0.000670312 -0.25 -2.2 0.4 -3.89406e-06 3.86595e-06 -7.9273e-07 -2.84217e-14 -8.3 1 -1.73175 -1.09211 0.139635 2.84217e-14 -4.65 0 -0.00147487 0.000468563 1.03349e-05 -2.84217e-14 -3.3 0 -3.48939e-06 0.000448665 -7.88002e-07 -0.5 -2.15 -0.8 -3.89406e-06 3.86595e-06 -7.9273e-07 0 -7.75 -0.2 -2.72631 3.34199 0.278833 2.84217e-14 -3.8 5.68434e-14 -0.000252403 -0.0285851 -0.0161758 -2.84217e-14 -3.4 0 1.02131e-05 -0.0226483 -0.0160191 -0.75 -1.75 -1.85 -3.89406e-06 3.86595e-06 -7.9273e-07 0 -7.15 -1 -1.49531 10.2516 0.291108 -2.84217e-14 -3 0 -0.0297935 0.000819002 -1.37837e-05 -2.84217e-14 -2.35 0 -8.92549e-06 0.000759849 -5.85136e-06 -5 17 0 7.48108 -8.369 -5.10702 -6.45 5.68434e-14 1.13687e-13 -2.8469 1.35289 -0.931198 -6.45 0 0 -50.6434 -40.6107 5.7498 5.68434e-14 -32.4 -2 -65.2974 -49.7546 -60.2435 -2.84217e-14 -25.65 2 -18.8897 -31.3443 -3.87425 0.5 -1.5 2.65 1.27305 -5.11425 0.146762 0 -3.8 3.7 0.583226 37.0656 -0.228893 5.68434e-14 -3 2.7 0.131011 67.086 -0.133938 2.84217e-14 -1.9 1.6 3.18055e-15 3.18055e-15 -0 2.84217e-14 -8.3 1.9 0.907843 -8.01533 0.0262359 2.84217e-14 -4.5 0 79.4298 -0.0411036 0.00468118 5.68434e-14 -3.4 0 61.6962 0.00387524 -0.00753661 0.25 -2.2 0.4 3.18055e-15 3.18055e-15 -0 2.84217e-14 -8.3 1 16.0078 -14.0519 1.13092 0 -4.65 0 74.0674 0.030493 -0.0205039 0 -3.3 0 55.9157 -0.00219489 -0.0335561 0.5 -2.15 -0.8 3.18055e-15 3.18055e-15 -0 2.84217e-14 -7.75 -0.2 41.1487 -8.73886 0.738061 0 -3.8 0 33.5726 0.00255608 -0.0331458 -5.68434e-14 -3.4 0 24.2191 0.0138867 -0.0119712 0.75 -1.75 -1.85 3.18055e-15 3.18055e-15 -0 -5.68434e-14 -7.15 -1 75.6049 -11.2611 -0.523932 -5.68434e-14 -3 -1.13687e-13 74.4292 -0.0337482 -0.0101808 0 -2.35 0 57.4014 -0.0303724 -0.00334051 8 -1.42109e-14 0 15.3722 -55.4538 18.8721 -5.68434e-14 -45 -1 2.21774 56.0627 -16.8365 0 -41 -2 -3.30292 -5.37252 -2.84631 0 -7.5 12.5 -1.14825e-08 3.58174e-06 1.3151e-08 0 0 4 6.77445 1.72935 37.2785 -8 0 0 8.44626 -43.3114 9.74931 0 -45 -1 -2.90893 65.6088 4.80103 0 -41 -2 -2.67175 0.874359 7.15321 -5.68434e-14 -7.5 12.5 7.18085e-07 -22.9222 9.46634e-08 5.68434e-14 0 4 9.15681 23.844 21.6064 
-252.151 82.3666 649.088 1.84735 0.25496 -173.859 0 8 -1.13687e-13 9.99097 17.6444 -10.7475 2.84217e-14 8 0 0.764555 8.04763 1.70512 2.84217e-14 8 0 0.411854 4.02623 0.86503 0 8 0 0.411321 4.01635 0.861293 2.84217e-14 17 0 2.39884 -0.450903 -5.02907 2.84217e-14 10.8 1.13687e-13 5.52824 -1.38538 -11.719 5 17 1.13687e-13 -0.846829 -5.31313 9.12233 6.45 2.84217e-14 0 -1.94039 -1.82377 -1.22455 6.45 -2.84217e-14 0 65.9895 -66.8987 29.3566 -5.68434e-14 -32.4 -2 -1.76311 -27.7398 6.25431 5.68434e-14 -25.65 2 7.38233 -8.98758 -29.6517 -0.5 -1.5 2.65 6.88832 -55.1534 15.7119 -2.84217e-14 -3.8 3.7 -0.0983516 16.5146 -0.00401668 0 -3 2.7 -0.0493073 34.8236 0.0643372 0 -1.9 1.6 -3.89406e-06 3.86595e-06 -7.9273e-07 -2.84217e-14 -8.3 1.9 -1.48652 -3.61487 0.176147 -2.84217e-14 -4.5 0 -0.000304578 -1.33501e-05 -0.000689243 0 -3.4 0 1.52994e-06 -4.1498e-06 -0.000670312 -0.25 -2.2 0.4 -3.89406e-06 3.86595e-06 -7.9273e-07 -5.68434e-14 -8.3 1 -1.59196 -0.619797 0.170461 2.84217e-14 -4.65 0 -0.00147487 0.000468563 1.03349e-05 0 -3.3 -5.68434e-14 -3.48939e-06 0.000448665 -7.88002e-07 -0.5 -2.15 -0.8 -3.89406e-06 3.86595e-06 -7.9273e-07 0 -7.75 -0.2 -2.36881 2.93519 0.217779 2.84217e-14 -3.8 0 -0.000251911 -0.026841 -0.0161758 -2.84217e-14 -3.4 0 1.02131e-05 -0.0226483 -0.0160191 -0.75 -1.75 -1.85 -3.89406e-06 3.86595e-06 -7.9273e-07 2.84217e-14 -7.15 -1 -1.15235 8.98789 0.151647 2.84217e-14 -3 0 -0.0297935 0.000819002 -1.37837e-05 2.84217e-14 -2.35 0 -8.92549e-06 0.000759849 -5.85136e-06 -5 17 0 7.44204 -8.33206 -5.21148 -6.45 5.68434e-14 0 -2.84608 1.34555 -0.928833 -6.45 0 -1.13687e-13 -50.7755 -40.456 5.3167 0 -32.4 -2 -65.1306 -49.8207 -60.2805 -1.42109e-14 -25.65 2 -18.6525 -31.3494 -3.98994 0.5 -1.5 2.65 1.32615 -5.07413 0.0867283 -2.84217e-14 -3.8 3.7 0.586116 37.0106 -0.228727 -2.84217e-14 -3 2.7 0.134655 67.0409 -0.137939 5.68434e-14 -1.9 1.6 6.36111e-15 -6.36111e-15 3.18055e-15 -5.68434e-14 -8.3 1.9 0.881356 -7.89281 0.0262281 -2.84217e-14 -4.5 0 79.5024 -0.0389074 0.00468118 0 -3.4 0 61.8078 0.00387524 -0.00753661 0.25 -2.2 0.4 6.36111e-15 -6.36111e-15 3.18055e-15 -2.84217e-14 -8.3 1 16.0532 -13.9134 1.10676 -2.84217e-14 -4.65 0 74.2121 0.030493 -0.0176136 0 -3.3 0 56.1046 -0.00219489 -0.0309236 0.5 -2.15 -0.8 6.36111e-15 -6.36111e-15 3.18055e-15 0 -7.75 -0.2 41.3872 -8.70061 0.706982 -4.26326e-14 -3.8 5.68434e-14 33.6041 0.00255608 -0.0315317 0 -3.4 0 24.2378 0.0138867 -0.0119712 0.75 -1.75 -1.85 6.36111e-15 -6.36111e-15 3.18055e-15 -2.84217e-14 -7.15 -1 75.6324 -11.2244 -0.549981 -5.68434e-14 -3 -5.68434e-14 74.6283 -0.0317156 -0.0101808 0 -2.35 0 57.6718 -0.029197 -0.00334051 8 1.42109e-14 -1.13687e-13 15.6798 -55.1845 18.6056 0 -45 -1 2.31762 56.5319 -16.9037 0 -41 -2 -3.18724 -5.25799 -3.28592 0 -7.5 12.5 -1.14825e-08 3.58174e-06 1.3151e-08 -2.84217e-14 0 4 6.49143 1.67482 37.3218 -8 0 -1.13687e-13 8.20222 -42.7038 9.45391 0 -45 -1 -2.78539 64.8275 4.67144 5.68434e-14 -41 -2 -2.71641 0.904574 7.59201 0 -7.5 12.5 7.17979e-07 -22.8628 9.46219e-08 0 6.93889e-18 4 9.28934 23.8339 21.6142 
